Coordinates
version=1
nRows=8
nColumns=63
inDegrees=yes

Units are S.I. units (second, meters, Newtons, ...)
If the header above contains a line with 'inDegrees', this indicates whether rotational values are in degrees (yes) or radians (no).

endheader
time	pelvis_tilt	pelvis_list	pelvis_rotation	pelvis_tx	pelvis_ty	pelvis_tz	hip_flexion_r	hip_adduction_r	hip_rotation_r	knee_angle_r	knee_angle_r_beta	ankle_angle_r	subtalar_angle_r	mtp_angle_r	hip_flexion_l	hip_adduction_l	hip_rotation_l	knee_angle_l	knee_angle_l_beta	ankle_angle_l	subtalar_angle_l	mtp_angle_l	L5_S1_Flex_Ext	L5_S1_Lat_Bending	L5_S1_axial_rotation	L4_L5_Flex_Ext	L4_L5_Lat_Bending	L4_L5_axial_rotation	L3_L4_Flex_Ext	L3_L4_Lat_Bending	L3_L4_axial_rotation	L2_L3_Flex_Ext	L2_L3_Lat_Bending	L2_L3_axial_rotation	L1_L2_Flex_Ext	L1_L2_Lat_Bending	L1_L2_axial_rotation	L1_T12_Flex_Ext	L1_T12_Lat_Bending	L1_T12_axial_rotation	Abs_r3	Abs_r2	Abs_r1	Abs_t1	Abs_t2	neck_flexion	neck_bending	neck_rotation	arm_flex_r	arm_add_r	arm_rot_r	elbow_flex_r	pro_sup_r	wrist_flex_r	wrist_dev_r	arm_flex_l	arm_add_l	arm_rot_l	elbow_flex_l	pro_sup_l	wrist_flex_l	wrist_dev_l
      7.98305085	      1.79230176	      8.71077052	     97.02608996	      0.24711581	      0.72366611	      0.63334900	     -5.39490848	      0.88962487	    -11.24083966	     14.57874194	      0.25444705	     30.85206004	      0.56212170	      0.00000000	     -9.62945852	     -2.60385941	     -1.07236962	      4.29036798	      0.07488105	     32.73738640	      8.70192056	      0.00000000	      0.03301371	      0.08995144	     -1.17297791	      0.06130976	      0.11963542	     -1.24628903	      0.05423823	      0.21870794	     -1.24628903	      0.03773137	      0.21870794	     -1.02635567	      0.03065653	      0.18342898	     -0.95304455	      0.01886403	      0.13933479	     -0.87973344	      0.23581364	      1.01754872	     -6.52375126	      0.00000000	      0.00000000	     24.33528867	      4.73325333	    -10.70486337	     93.72580650	    -32.48596705	     15.38863340	     94.48684741	     68.77899335	    -25.03104608	     16.73278756	    103.21622522	    -36.59141731	     20.65512401	     93.13109139	     81.25443025	    -17.24855247	      1.83168114
      8.00000000	      1.72825549	      8.48973130	     97.37846655	      0.24629351	      0.72303293	      0.63457465	     -5.01547394	      0.74057163	    -11.63305514	     14.88493163	      0.25979107	     30.87262195	      0.25806434	      0.00000000	     -9.02330458	     -2.54835675	     -0.93523811	      4.84497460	      0.08456076	     33.02483028	      8.92665409	      0.00000000	      0.01887202	      0.08118947	     -1.40542773	      0.03504722	      0.10798200	     -1.49326697	      0.03100484	      0.19740409	     -1.49326697	      0.02156883	      0.19740409	     -1.22974927	      0.01752456	      0.16556158	     -1.14191003	      0.01078347	      0.12576250	     -1.05407080	      0.13480093	      0.91843157	     -7.81656742	      0.00000000	      0.00000000	     25.32165694	      4.78005129	    -10.86297845	     98.47113196	    -31.86458167	     18.81332641	     89.85056801	     67.75442917	    -24.45508011	     17.96927848	    107.01229575	    -36.70512429	     22.61439196	     87.93015240	     82.44068575	    -17.55390673	      2.89610750
      8.01694915	      1.77274379	      8.04542042	     98.14928342	      0.24487646	      0.72217152	      0.63566967	     -4.59126944	      0.70694949	    -12.69641081	     14.77307250	      0.25783876	     30.82553093	      0.46243686	      0.00000000	     -8.09539540	     -2.66013578	     -1.31925740	      5.44343174	      0.09500581	     33.44052483	     10.28126417	      0.00000000	      0.04606637	      0.10059955	     -1.82817559	      0.08554985	      0.13379741	     -1.94243657	      0.07568243	      0.24459775	     -1.94243657	      0.05264925	      0.24459775	     -1.59965364	      0.04277723	      0.20514261	     -1.48539267	      0.02632232	      0.15582871	     -1.37113169	      0.32904744	      1.13800227	    -10.16776419	      0.00000000	      0.00000000	     26.30429072	      4.49502323	     -9.23524620	    102.93363305	    -30.49433478	     22.92376890	     85.03213481	     59.52658446	    -24.37491096	     16.05814592	    111.98176649	    -38.64192503	     28.00436892	     83.25083598	     86.48184161	    -24.93346322	      6.46540782
      8.03389831	      1.72544741	      7.72059805	     98.76105573	      0.24419300	      0.72153860	      0.63680161	     -4.25826291	      0.66238440	    -13.05944142	     14.66645705	      0.25597797	     30.82485134	      0.23127615	      0.00000000	     -7.34979060	     -2.66720433	     -1.15198942	      5.98647798	      0.10448375	     33.67594367	     10.73917260	      0.00000000	      0.06260538	      0.10360224	     -2.19940247	      0.11626445	      0.13779097	     -2.33686513	      0.10285438	      0.25189847	     -2.33686513	      0.07155169	      0.25189847	     -1.92447716	      0.05813536	      0.21126568	     -1.78701451	      0.03577271	      0.16047986	     -1.64955186	      0.44718396	      1.17196920	    -12.23241674	      0.00000000	      0.00000000	     26.79055972	      4.11217515	     -7.68383246	    106.14249064	    -28.49400629	     24.92224238	     80.86436002	     58.27336020	    -23.46057618	     16.80984812	    117.00041043	    -40.31041324	     33.08569496	     78.42621728	     87.75709506	    -23.99040976	     10.88932441
      8.05084746	      1.49062464	      7.40454285	     99.28557938	      0.24405514	      0.72098773	      0.63765012	     -3.98124860	      0.48170363	    -12.91573907	     14.49718328	      0.25302358	     30.91143168	     -0.24521712	      0.00000000	     -6.69725165	     -2.50546983	     -1.52413470	      6.47706522	      0.11304611	     33.89994419	     11.72054332	      0.00000000	      0.07822024	      0.06917377	     -2.52752107	      0.14526280	      0.09200111	     -2.68549114	      0.12850803	      0.16818909	     -2.68549114	      0.08939791	      0.16818909	     -2.21158094	      0.07263531	      0.14105914	     -2.05361087	      0.04469504	      0.10715016	     -1.89564081	      0.55871933	      0.78250747	    -14.05731396	      0.00000000	      0.00000000	     27.18647747	      3.87535304	     -6.73662022	    108.06672574	    -26.49661970	     24.85726390	     77.71946290	     61.60999103	    -21.58178056	     17.49964559	    122.53504835	    -41.54556023	     37.85837191	     75.17561038	     88.59166933	    -15.70002407	     23.01448250
      8.06779661	      1.33131414	      7.13084580	     99.69087001	      0.24403264	      0.72042595	      0.63827313	     -3.77739489	      0.39858754	    -12.48632020	     14.21935991	      0.24817465	     31.00106522	     -0.74226503	      0.00000000	     -6.16999905	     -2.38437580	     -1.50096922	      6.82962490	      0.11919944	     34.04757663	     12.09473754	      0.00000000	      0.09768879	      0.04469831	     -2.75716367	      0.18141785	      0.05944875	     -2.92948640	      0.16049291	      0.10867947	     -2.92948640	      0.11164852	      0.10867947	     -2.41251821	      0.09071381	      0.09114879	     -2.24019548	      0.05581937	      0.06923768	     -2.06787275	      0.69778125	      0.50563621	    -15.33451718	      0.00000000	      0.00000000	     27.40902103	      3.54793956	     -6.13028013	    109.24717928	    -24.75733453	     23.34620696	     75.79171996	     69.26381214	    -20.34018044	     17.56676803	    127.59188765	    -42.24366124	     43.13209738	     71.98491991	     88.90336622	     -8.05880714	     29.35687840
      8.08474576	      1.45065886	      6.94871227	     99.67944606	      0.24375529	      0.71987250	      0.63871819	     -3.64209579	      0.51673727	    -11.90597844	     13.86578515	      0.24200360	     31.02814011	     -0.74358286	      0.00000000	     -5.82335099	     -2.45809593	     -1.59021031	      7.05562959	      0.12314397	     34.27473311	     12.10052045	      0.00000000	      0.11742693	      0.07049519	     -2.77024047	      0.21807356	      0.09375861	     -2.94338050	      0.19292071	      0.17140201	     -2.94338050	      0.13420724	      0.17140201	     -2.42396041	      0.10904265	      0.14375380	     -2.25082038	      0.06709775	      0.10919705	     -2.07768035	      0.83876885	      0.79745572	    -15.40724640	      0.00000000	      0.00000000	     27.47765632	      2.82784795	     -5.90181585	    110.43340182	    -24.06103736	     22.06047588	     74.85545043	     74.06481778	    -20.58638352	     13.74397171	    129.64859647	    -42.40971689	     45.76181107	     70.27587047	     88.99362392	     -5.94990930	     30.23252851
      8.10169492	      1.43935266	      6.90010838	     99.66827252	      0.24380427	      0.71957041	      0.63909913	     -3.70856090	      0.61469788	    -10.81151539	     13.40266057	      0.23392056	     30.94011901	     -1.50101470	      0.00000000	     -5.65569928	     -2.45059361	     -1.80915596	      7.26013789	      0.12671331	     34.42221839	     12.31927258	      0.00000000	      0.11858803	      0.08404576	     -2.76288332	      0.22022983	      0.11178085	     -2.93556353	      0.19482828	      0.20434885	     -2.93556353	      0.13553426	      0.20434885	     -2.41752291	      0.11012085	      0.17138610	     -2.24484270	      0.06776120	      0.13018688	     -2.07216249	      0.84706245	      0.95074239	    -15.36632819	      0.00000000	      0.00000000	     27.43075669	      2.69400757	     -5.11859275	    110.89071096	    -22.64852561	     18.59327955	     75.12680330	     79.69069347	    -21.90215688	     10.40600377	    129.58844818	    -42.79848180	     45.07451297	     70.59557928	     88.97057700	     -4.87939351	     30.12191384
